#!OML:ASF E:\motion texture\Top Level 1\Subject 1\Session 1\male.ASF
:FULLY-SPECIFIED
:DEGREES
385
root -24.4352 18.1058 3.88477 805.156 -76.4753 -806.766
lowerback 5.36247 3.99127 12.5816
upperback -1.24739 6.18254 4.65562
thorax -3.53007 2.75238 -2.57003
lowerneck -16.922 -5.83723 -6.77835
upperneck 14.7793 -7.84341 8.04744
head 7.94673 -3.38303 2.82746
rclavicle 2.65253e-014 7.15625e-014
rhumerus 2.28868 5.17042 -83.3893
rradius 60.2321
rwrist -1.81308
rhand -14.5685 -10.1927
rfingers 7.12502
rthumb 11.5809 -39.8527
lclavicle 2.65253e-014 7.15625e-014
lhumerus -52.1135 4.6021 67.5031
lradius 35.4298
lwrist -13.4581
lhand -7.19394 5.40275
lfingers 7.12502
lthumb 18.6843 34.5254
rfemur -4.0311 3.25965 40.9177
rtibia 21.158
rfoot 351.109 -8.41146
rtoes 18.7434
lfemur -73.8943 3.3071 -5.81145
ltibia 62.9889
lfoot 725.988 190.259
ltoes 0.92539
386
root -24.5788 18.1257 3.88806 805.318 -76.4568 -807.116
lowerback 5.57239 4.04531 12.5979
upperback -1.21581 6.28828 4.64516
thorax -3.59867 2.80123 -2.61095
lowerneck -16.9586 -5.88726 -6.87291
upperneck 14.8254 -7.89542 8.07682
head 7.9777 -3.40863 2.845
rclavicle -6.31079e-014 -2.0276e-014
rhumerus 2.54047 4.97976 -83.1933
rradius 60.4585
rwrist -1.62458
rhand -14.4776 -10.0907
rfingers 7.12502
rthumb 11.6686 -39.7458
lclavicle -6.31079e-014 -2.0276e-014
lhumerus -52.5953 4.58326 67.12
lradius 35.8708
lwrist -13.1706
lhand -7.22728 5.22222
lfingers 7.12502
lthumb 18.6522 34.348
rfemur -3.22306 3.14956 40.9534
rtibia 20.9527
rfoot 351.144 -8.30145
rtoes 18.0928
lfemur -75.8038 3.10247 -6.13984
ltibia 62.9356
lfoot 725.902 190.715
ltoes 0.982047
387
root -24.7222 18.1441 3.89151 805.468 -76.4419 -807.463
lowerback 5.79026 4.08854 12.5986
upperback -1.17059 6.3785 4.64395
thorax -3.66173 2.8435 -2.63379
lowerneck -17.0178 -5.9274 -6.95521
upperneck 14.8726 -7.93262 8.09282
head 8.01077 -3.42709 2.85759
rclavicle 7.85821e-015 5.36719e-014
rhumerus 2.74049 4.7753 -83.0288
rradius 60.6803
rwrist -1.53292
rhand -14.4099 -10.018
rfingers 7.12502
rthumb 11.7339 -39.6693
lclavicle 7.85821e-015 5.36719e-014
lhumerus -53.0133 4.58191 66.8026
lradius 36.2443
lwrist -12.9104
lhand -7.32136 5.01822
lfingers 7.12502
lthumb 18.5617 34.1526
rfemur -2.44407 3.02463 40.9758
rtibia 20.8143
rfoot 351.193 -8.1621
rtoes 17.2962
lfemur -77.5294 2.87696 -6.43341
ltibia 63.0225
lfoot 725.833 191.224
ltoes 1.00714
388
root -24.8654 18.1612 3.89527 805.627 -76.4213 -807.823
lowerback 6.00278 4.12301 12.5971
upperback -1.11278 6.45441 4.65232
thorax -3.71147 2.8798 -2.64411
lowerneck -17.0976 -5.9577 -7.01989
upperneck 14.9211 -7.95599 8.09256
head 8.0453 -3.4389 2.86331
rclavicle -1.24675e-014 -6.06293e-014
rhumerus 2.89543 4.57066 -82.8892
rradius 60.8884
rwrist -1.5538
rhand -14.3954 -9.97319
rfingers 7.12502
rthumb 11.7479 -39.6238
lclavicle -1.24675e-014 -6.06293e-014
lhumerus -53.3761 4.57694 66.5657
lradius 36.5817
lwrist -12.6265
lhand -7.4276 4.83788
lfingers 7.12502
lthumb 18.4595 33.982
rfemur -1.70089 2.90739 40.9981
rtibia 20.7438
rfoot 351.252 -8.00407
rtoes 16.4221
lfemur -79.0723 2.64773 -6.68832
ltibia 63.2355
lfoot 725.777 191.757
ltoes 0.993164
389
root -25.0086 18.1769 3.89947 805.844 -76.3864 -808.233
lowerback 6.19498 4.15351 12.6054
upperback -1.04777 6.52108 4.66995
thorax -3.74326 2.91239 -2.64764
lowerneck -17.1726 -5.97403 -7.06435
upperneck 14.9548 -7.96177 8.08029
head 8.07131 -3.44266 2.86417
rclavicle 1.71265e-014 1.10127e-013
rhumerus 2.99358 4.36323 -82.7753
rradius 61.0868
rwrist -1.6531
rhand -14.4268 -9.9506
rfingers 7.12502
rthumb 11.7175 -39.6029
lclavicle 1.71265e-014 1.10127e-013
lhumerus -53.6803 4.59276 66.3895
lradius 36.8608
lwrist -12.3613
lhand -7.54878 4.68096
lfingers 7.12502
lthumb 18.343 33.8361
rfemur -1.00392 2.81873 41.0335
rtibia 20.7432
rfoot 351.306 -7.83458
rtoes 15.5292
lfemur -80.4425 2.43463 -6.90209
ltibia 63.5596
lfoot 725.739 192.267
ltoes 0.937921
390
root -25.1523 18.1911 3.90409 806.107 -76.3379 -808.669
lowerback 6.35358 4.18109 12.6233
upperback -0.984574 6.57875 4.69382
thorax -3.75884 2.94106 -2.64651
lowerneck -17.2247 -5.9775 -7.08564
upperneck 14.974 -7.95351 8.0552
head 8.08583 -3.44047 2.85931
rclavicle 1.64432e-014 5.34731e-014
rhumerus 3.03206 4.15757 -82.6818
rradius 61.2619
rwrist -1.78988
rhand -14.495 -9.95061
rfingers 7.12502
rthumb 11.6518 -39.6066
lclavicle 1.64432e-014 5.34731e-014
lhumerus -53.9348 4.63543 66.2649
lradius 37.0929
lwrist -12.1203
lhand -7.63228 4.59091
lfingers 7.12502
lthumb 18.2626 33.7536
rfemur -0.356296 2.76298 41.0833
rtibia 20.7979
rfoot 351.357 -7.66255
rtoes 14.6112
lfemur -81.6507 2.24091 -7.08101
ltibia 63.9829
lfoot 725.726 192.707
ltoes 0.871022
391
root -25.2964 18.2036 3.90897 806.425 -76.2781 -809.133
lowerback 6.46805 4.20811 12.647
upperback -0.924291 6.62863 4.72255
thorax -3.75348 2.9668 -2.63936
lowerneck -17.2523 -5.96885 -7.09149
upperneck 14.9763 -7.93237 8.02781
head 8.08863 -3.43243 2.85339
rclavicle -1.51201e-014 3.75703e-014
rhumerus 3.00637 3.94529 -82.6104
rradius 61.4203
rwrist -1.90924
rhand -14.5752 -9.96063
rfingers 7.12502
rthumb 11.5744 -39.621
lclavicle -1.51201e-014 3.75703e-014
lhumerus -54.1331 4.70378 66.1939
lradius 37.2676
lwrist -11.9296
lhand -7.69875 4.51699
lfingers 7.12502
lthumb 18.1987 33.6857
rfemur 0.237494 2.74587 41.1476
rtibia 20.9031
rfoot 351.399 -7.4961
rtoes 13.7103
lfemur -82.71 2.06831 -7.23041
ltibia 64.4914
lfoot 725.737 193.038
ltoes 0.747362
392
root -25.4409 18.2143 3.9139 806.8 -76.2141 -809.617
lowerback 6.53897 4.23725 12.6686
upperback -0.87058 6.67434 4.75178
thorax -3.7313 2.99133 -2.62678
lowerneck -17.2727 -5.95457 -7.08249
upperneck 14.9743 -7.90704 7.99802
head 8.08772 -3.42207 2.84497
rclavicle -4.71555e-014 -5.26779e-014
rhumerus 2.92928 3.72636 -82.5566
rradius 61.5483
rwrist -1.98226
rhand -14.6509 -9.97936
rfingers 7.12502
rthumb 11.5014 -39.6438
lclavicle -4.71555e-014 -5.26779e-014
lhumerus -54.2744 4.77975 66.1836
lradius 37.3961
lwrist -11.7907
lhand -7.75153 4.4612
lfingers 7.12502
lthumb 18.1479 33.6346
rfemur 0.778043 2.76452 41.2205
rtibia 21.0418
rfoot 351.433 -7.34128
rtoes 12.7899
lfemur -83.6254 1.9205 -7.35867
ltibia 65.0863
lfoot 725.774 193.239
ltoes 0.5941
393
root -25.5858 18.2232 3.91852 807.2 -76.152 -810.094
lowerback 6.57155 4.26722 12.68
upperback -0.825323 6.71478 4.77839
thorax -3.69793 3.014 -2.6082
lowerneck -17.2824 -5.93585 -7.0649
upperneck 14.9658 -7.87982 7.9764
head 8.08265 -3.40996 2.83835
rclavicle 1.6378e-014 6.2816e-014
rhumerus 2.80173 3.49599 -82.5223
rradius 61.6475
rwrist -1.9919
rhand -15.1909 -9.96583
rfingers 7.12502
rthumb 10.9806 -39.6587
lclavicle 1.6378e-014 6.2816e-014
lhumerus -54.3548 4.85023 66.2383
lradius 37.4784
lwrist -11.7067
lhand -7.78774 4.41883
lfingers 7.12502
lthumb 18.1131 33.5954
rfemur 1.27202 2.81261 41.2979
rtibia 21.2043
rfoot 351.458 -7.20968
rtoes 11.8447
lfemur -84.3988 1.79457 -7.47371
ltibia 65.7645
lfoot 725.833 193.305
ltoes 0.38139
394
root -25.7307 18.2304 3.92271 807.652 -76.0966 -810.584
lowerback 6.56992 4.29908 12.6755
upperback -0.792009 6.75215 4.80056
thorax -3.65957 3.0356 -2.58313
lowerneck -17.2806 -5.91215 -7.03953
upperneck 14.953 -7.84983 7.96226
head 8.074 -3.39581 2.83357
rclavicle 8.12532e-015 -1.96797e-014
rhumerus 2.62708 3.26086 -82.5079
rradius 61.7185
rwrist -1.94559
rhand -16.334 -10.0151
rfingers 7.12502
rthumb 9.87791 -39.7634
lclavicle 8.12532e-015 -1.96797e-014
lhumerus -54.3867 4.90038 66.3605
lradius 37.5321
lwrist -11.6654
lhand -7.81353 4.40579
lfingers 7.12502
lthumb 18.0883 33.5847
rfemur 1.71866 2.88933 41.3753
rtibia 21.3843
rfoot 351.475 -7.09977
rtoes 10.874
lfemur -85.0384 1.69914 -7.58183
ltibia 66.5241
lfoot 725.922 193.249
ltoes 0.116077
395
root -25.8758 18.236 3.92642 808.107 -76.0556 -811.042
lowerback 6.53628 4.32806 12.6468
upperback -0.771024 6.78011 4.81574
thorax -3.61934 3.05306 -2.54975
lowerneck -17.2651 -5.88308 -7.01023
upperneck 14.9342 -7.8169 7.96215
head 8.06122 -3.37922 2.8335
rclavicle -5.87502e-014 -3.10104e-014
rhumerus 2.40973 3.03148 -82.5145
rradius 61.7633
rwrist -1.86928
rhand -17.9578 -10.3816
rfingers 7.12502
rthumb 8.31111 -40.1981
lclavicle -5.87502e-014 -3.10104e-014
lhumerus -54.3689 4.92362 66.5481
lradius 37.5578
lwrist -11.664
lhand -7.82762 4.40217
lfingers 7.12502
lthumb 18.0747 33.5823
rfemur 2.12667 2.98092 41.4424
rtibia 21.5671
rfoot 351.473 -7.01633
rtoes 9.85604
lfemur -85.5461 1.62451 -7.69243
ltibia 67.3661
lfoot 726.047 193.095
ltoes -0.173821
396
root -26.0208 18.2401 3.92992 808.574 -76.0487 -811.468
lowerback 6.46998 4.35568 12.5793
upperback -0.768585 6.80051 4.81607
thorax -3.5839 3.06722 -2.50889
lowerneck -17.2357 -5.85082 -6.97935
upperneck 14.9142 -7.78387 7.97623
head 8.0462 -3.36163 2.83819
rclavicle 4.80562e-014 9.14409e-015
rhumerus 2.15367 2.81498 -82.5402
rradius 61.7777
rwrist -1.79977
rhand -19.7922 -11.3412
rfingers 7.12502
rthumb 6.54043 -41.2202
lclavicle 4.80562e-014 9.14409e-015
lhumerus -54.338 4.86209 66.8318
lradius 37.621
lwrist -11.6343
lhand -7.8285 4.44537
lfingers 7.12502
lthumb 18.0738 33.6256
rfemur 2.49369 3.08757 41.4744
rtibia 21.7443
rfoot 351.456 -6.9544
rtoes 8.86008
lfemur -85.9321 1.56697 -7.82617
ltibia 68.2939
lfoot 726.213 192.884
ltoes -0.417073
397
root -26.1655 18.2424 3.933 809.062 -76.0432 -811.878
lowerback 6.3822 4.38058 12.5077
upperback -0.780426 6.81519 4.81073
thorax -3.55213 3.07806 -2.47013
lowerneck -17.207 -5.81786 -6.94731
upperneck 14.8956 -7.75195 7.99845
head 8.03221 -3.34373 2.84523
rclavicle -2.81373e-014 -2.18663e-014
rhumerus 1.8647 2.61273 -82.5852
rradius 61.7704
rwrist -1.75926
rhand -21.2632 -13.1135
rfingers 7.12502
rthumb 5.12023 -43.0316
lclavicle -2.81373e-014 -2.18663e-014
lhumerus -54.2716 4.74798 67.19
lradius 37.6935
lwrist -11.5979
lhand -7.82011 4.50817
lfingers 7.12502
lthumb 18.0819 33.6877
rfemur 2.82906 3.20454 41.509
rtibia 21.9107
rfoot 351.423 -6.90978
rtoes 7.93195
lfemur -86.1988 1.5377 -7.94849
ltibia 69.3021
lfoot 726.425 192.664
ltoes -0.573392
